# xmcd
# 
# Track frame offsets:
#     150
#     18175
#     42405
#     63437
#     81135
#     101205
#     116370
#     133264
#     151082
#     166016
#     187526
# 
# Disc length: 2789
# 
# Revision: 0
# Processed by: cddbd v1.5.2PL0 Copyright (c) Steve Scherf et al.
# Submitted via: fre:ac v1.1beta1pre4
# 
DISCID=7d0ae30b
DTITLE=Nicolas Pellerin Et Les Grands Hurleurs - Petit Grain D'Or
DYEAR=2011
DGENRE=Blues
TTITLE0=Trégate
TTITLE1=Petit Grain D'or
TTITLE2=Sieste
TTITLE3=Cabaretier
TTITLE4=Jour J
TTITLE5=Le Monde
TTITLE6=Pas De Trouble
TTITLE7=De Fil En Chanson
TTITLE8=Belle Estelle
TTITLE9=Berceuse Pour Philomène
TTITLE10=Infusion Matinale
EXTD=
EXTT0=
EXTT1=
EXTT2=
EXTT3=
EXTT4=
EXTT5=
EXTT6=
EXTT7=
EXTT8=
EXTT9=
EXTT10=
PLAYORDER=
